/* XPM */
static const char * bomb_32_xpm[] = {
"32 32 43 1",
" 	c None",
".	c #272727",
"+	c #0F0F0F",
"@	c #030303",
"#	c #0E0E0E",
"$	c #151515",
"%	c #303030",
"&	c #323232",
"*	c #040404",
"=	c #2F2F2F",
"-	c #282828",
";	c #141414",
">	c #0B0B0B",
",	c #1C1C1C",
"'	c #070707",
")	c #010101",
"!	c #050505",
"~	c #191919",
"{	c #1E1E1E",
"]	c #161616",
"^	c #222222",
"/	c #000000",
"(	c #0D0D0D",
"_	c #242424",
":	c #121212",
"<	c #1A1A1A",
"[	c #131313",
"}	c #1D1D1D",
"|	c #020202",
"1	c #101010",
"2	c #292929",
"3	c #1F1F1F",
"4	c #252525",
"5	c #212121",
"6	c #1B1B1B",
"7	c #2B2B2B",
"8	c #232323",
"9	c #181818",
"0	c #262626",
"a	c #111111",
"b	c #060606",
"c	c #202020",
"d	c #2C2C2C",
"                           ..   ",
"                         + @@ # ",
"                          $%%$  ",
"                             &*.",
"                             =@-",
"                          +  ;  ",
"                         >    # ",
"         ,;')!;~{   ]^  +       ",
"      .;@///////)(_:/@<[        ",
"     }||:<@////////////,        ",
"    1)$2  3////////////*4       ",
"   :)5    ]/////////////$       ",
"  6)}    <)////////////+        ",
" 7|+   3!//////////////8        ",
" 9|0  8|///////////////(        ",
" *#   !////////////////)3       ",
"5/1  <//////////////////<       ",
"</)a+)//////////////////$       ",
"~///////////////////////!       ",
"b///////////////////////)       ",
"6///////////////////////'       ",
"[///////////////////////;       ",
"})//////////////////////}       ",
" !/////////////////////@        ",
" $/////////////////////;        ",
"  *///////////////////|-        ",
"  3)//////////////////}         ",
"   ~/////////////////1          ",
"    9)//////////////:           ",
"     c*///////////|6            ",
"       [!)//////*9d             ",
"         }[6'<$c                "};
