/* XPM */
static const char * bomb_16_xpm[] = {
"16 16 22 1",
" 	c None",
".	c #292929",
"+	c #161616",
"@	c #0C0C0C",
"#	c #131313",
"$	c #121212",
"%	c #0E0E0E",
"&	c #030303",
"*	c #000000",
"=	c #010101",
"-	c #050505",
";	c #101010",
">	c #151515",
",	c #1C1C1C",
"'	c #0D0D0D",
")	c #111111",
"!	c #0A0A0A",
"~	c #141414",
"{	c #181818",
"]	c #060606",
"^	c #0B0B0B",
"/	c #0F0F0F",
"                ",
"              . ",
"                ",
"     +@     #   ",
"   $%&*=-;&#    ",
"  $  %*****&    ",
" ;  >=*****%    ",
",> '*******-    ",
")))=*******=    ",
"!***********@   ",
"'**********=+   ",
"~**********&    ",
" &*********)    ",
" {=*******]     ",
"  {&****=!      ",
"    ~'^/,       "};
