/* XPM */
static const char * bomb_64_xpm[] = {
"64 64 67 1",
" 	c None",
".	c #393939",
"+	c #383838",
"@	c #303030",
"#	c #010101",
"$	c #121212",
"%	c #000000",
"&	c #313131",
"*	c #131313",
"=	c #191919",
"-	c #0A0A0A",
";	c #030303",
">	c #404040",
",	c #3F3F3F",
"'	c #434343",
")	c #444444",
"!	c #3A3A3A",
"~	c #181818",
"{	c #040404",
"]	c #141414",
"^	c #171717",
"/	c #3D3D3D",
"(	c #0E0E0E",
"_	c #0C0C0C",
":	c #151515",
"<	c #0F0F0F",
"[	c #2D2D2D",
"}	c #2C2C2C",
"|	c #111111",
"1	c #050505",
"2	c #2E2E2E",
"3	c #292929",
"4	c #323232",
"5	c #0B0B0B",
"6	c #2F2F2F",
"7	c #343434",
"8	c #090909",
"9	c #1E1E1E",
"0	c #414141",
"a	c #262626",
"b	c #1B1B1B",
"c	c #080808",
"d	c #060606",
"e	c #1C1C1C",
"f	c #282828",
"g	c #242424",
"h	c #020202",
"i	c #1A1A1A",
"j	c #2A2A2A",
"k	c #333333",
"l	c #212121",
"m	c #515151",
"n	c #373737",
"o	c #454545",
"p	c #202020",
"q	c #272727",
"r	c #2B2B2B",
"s	c #101010",
"t	c #222222",
"u	c #1D1D1D",
"v	c #363636",
"w	c #3B3B3B",
"x	c #070707",
"y	c #252525",
"z	c #1F1F1F",
"A	c #3C3C3C",
"B	c #353535",
"                                                       ..       ",
"                                                 +@    ##    @. ",
"                                                 @#$   %%   $#& ",
"                                                  *#$  %%  $%$  ",
"                                                   $#= -- =#$   ",
"                                                    =;>>>,;=    ",
"                                                     '    )     ",
"                                                          >-%%#.",
"                                                          ,-%%#!",
"                                                     ~{   ,     ",
"                                                    ]#^  /;=    ",
"                                                   (%=    =#$   ",
"                                                  $#_      $%$  ",
"                                                 :#<        $#@ ",
"                   [}|<1#%1--234        }5@     ~#*          6+ ",
"                7:1#%%%%%%%%%%%{890    a#%{3   b#:              ",
"              [c#%%%%%%%%%%%%%%%%%de@ a#%%%;f 9#^               ",
"            g8%%%%%%%%%%%%%%%%%%%%%%;5%%%%%%h-#i                ",
"          '|#%%%%%#%%%%%%%%%%%%%%%%%%%%%%%%%%%-                 ",
"         gc%%%%#(jkgh%%%%%%%%%%%%%%%%%%%%%%%%%;[                ",
"        a#%%%#<6    4%%%%%%%%%%%%%%%%%%%%%%%%%%{[               ",
"       l#%%%1@      !1%%%%%%%%%%%%%%%%%%%%%%%%%%{k              ",
"      j#%%%_7       4;%%%%%%%%%%%%%%%%%%%%%%%%%%%_              ",
"     2#%%%|m        ^%%%%%%%%%%%%%%%%%%%%%%%%%%%%j              ",
"    !c%%%*        n~#%%%%%%%%%%%%%%%%%%%%%%%%%%%l               ",
"    b%%%8o      >~#%%%%%%%%%%%%%%%%%%%%%%%%%%%%p                ",
"   q#%%;4      r1%%%%%%%%%%%%%%%%%%%%%%%%%%%%%-                 ",
"   s%%%l      ^#%%%%%%%%%%%%%%%%%%%%%%%%%%%%%%;k                ",
"  7#%%8      t#%%%%%%%%%%%%%%%%%%%%%%%%%%%%%%%%u                ",
"  s%%%f     3h%%%%%%%%%%%%%%%%%%%%%%%%%%%%%%%%%;v               ",
" w;%%d     kx%%%%%%%%%%%%%%%%%%%%%%%%%%%%%%%%%%%p               ",
" f%%%t     g%%%%%%%%%%%%%%%%%%%%%%%%%%%%%%%%%%%%-               ",
" 8%%%y    ,1%%%%%%%%%%%%%%%%%%%%%%%%%%%%%%%%%%%%{k              ",
" d%%%c0   $%%%%%%%%%%%%%%%%%%%%%%%%%%%%%%%%%%%%%%j              ",
"!#%%%%5fei#%%%%%%%%%%%%%%%%%%%%%%%%%%%%%%%%%%%%%%6              ",
"]%%%%%%%%%%%%%%%%%%%%%%%%%%%%%%%%%%%%%%%%%%%%%%%%5              ",
"3%%%%%%%%%%%%%%%%%%%%%%%%%%%%%%%%%%%%%%%%%%%%%%%%5              ",
"f%%%%%%%%%%%%%%%%%%%%%%%%%%%%%%%%%%%%%%%%%%%%%%%%1              ",
";%%%%%%%%%%%%%%%%%%%%%%%%%%%%%%%%%%%%%%%%%%%%%%%%%              ",
"-%%%%%%%%%%%%%%%%%%%%%%%%%%%%%%%%%%%%%%%%%%%%%%%%#              ",
"j%%%%%%%%%%%%%%%%%%%%%%%%%%%%%%%%%%%%%%%%%%%%%%%%d              ",
"r%%%%%%%%%%%%%%%%%%%%%%%%%%%%%%%%%%%%%%%%%%%%%%%%<              ",
"z%%%%%%%%%%%%%%%%%%%%%%%%%%%%%%%%%%%%%%%%%%%%%%%%|              ",
"y#%%%%%%%%%%%%%%%%%%%%%%%%%%%%%%%%%%%%%%%%%%%%%%%[              ",
" {%%%%%%%%%%%%%%%%%%%%%%%%%%%%%%%%%%%%%%%%%%%%%%#[              ",
" |%%%%%%%%%%%%%%%%%%%%%%%%%%%%%%%%%%%%%%%%%%%%%%d               ",
" @%%%%%%%%%%%%%%%%%%%%%%%%%%%%%%%%%%%%%%%%%%%%%%:               ",
" A{%%%%%%%%%%%%%%%%%%%%%%%%%%%%%%%%%%%%%%%%%%%%#7               ",
"  u%%%%%%%%%%%%%%%%%%%%%%%%%%%%%%%%%%%%%%%%%%%%c                ",
"  jh%%%%%%%%%%%%%%%%%%%%%%%%%%%%%%%%%%%%%%%%%%%2                ",
"   ^%%%%%%%%%%%%%%%%%%%%%%%%%%%%%%%%%%%%%%%%%%8                 ",
"   7{%%%%%%%%%%%%%%%%%%%%%%%%%%%%%%%%%%%%%%%%#y                 ",
"    t%%%%%%%%%%%%%%%%%%%%%%%%%%%%%%%%%%%%%%%%$                  ",
"     |%%%%%%%%%%%%%%%%%%%%%%%%%%%%%%%%%%%%%%c)                  ",
"     !d%%%%%%%%%%%%%%%%%%%%%%%%%%%%%%%%%%%%#y                   ",
"      !1%%%%%%%%%%%%%%%%%%%%%%%%%%%%%%%%%%#a                    ",
"       71%%%%%%%%%%%%%%%%%%%%%%%%%%%%%%%%#l                     ",
"        .d%%%%%%%%%%%%%%%%%%%%%%%%%%%%%%#r                      ",
"         w|%%%%%%%%%%%%%%%%%%%%%%%%%%%%c2                       ",
"           g{%%%%%%%%%%%%%%%%%%%%%%%%#bw                        ",
"            n~h%%%%%%%%%%%%%%%%%%%%#sf                          ",
"              au{%%%%%%%%%%%%%%%%;sB                            ",
"                /@|{#%%%%%%%%#d8fw                              ",
"                    gpjr5{3j*6                                  "};
